{
	"asset":{
		"generator":"Khronos glTF Blender I/O v3.5.30",
		"version":"2.0"
	},
	"scene":0,
	"scenes":[
		{
			"name":"Scene",
			"nodes":[
				0
			]
		}
	],
	"nodes":[
		{
			"mesh":0,
			"name":"Cube"
		}
	],
	"materials":[
		{
			"doubleSided":true,
			"name":"Material",
			"pbrMetallicRoughness":{
				"baseColorTexture":{
					"index":0
				},
				"metallicFactor":0,
				"roughnessFactor":0.5
			}
		}
	],
	"meshes":[
		{
			"name":"Cube",
			"primitives":[
				{
					"attributes":{
						"POSITION":0,
						"TEXCOORD_0":1,
						"NORMAL":2
					},
					"indices":3,
					"material":0
				}
			]
		}
	],
	"textures":[
		{
			"sampler":0,
			"source":0
		}
	],
	"images":[
		{
			"mimeType":"image/png",
			"name":"diffuse",
			"uri":"diffuse.png"
		}
	],
	"accessors":[
		{
			"bufferView":0,
			"componentType":5126,
			"count":1148,
			"max":[
				0.3454614579677582,
				-0.021967999637126923,
				2.2618465423583984
			],
			"min":[
				0.173344224691391,
				-0.5929443836212158,
				-0.41385579109191895
			],
			"type":"VEC3"
		},
		{
			"bufferView":1,
			"componentType":5126,
			"count":1148,
			"type":"VEC2"
		},
		{
			"bufferView":2,
			"componentType":5126,
			"count":1148,
			"type":"VEC3"
		},
		{
			"bufferView":3,
			"componentType":5123,
			"count":2244,
			"type":"SCALAR"
		}
	],
	"bufferViews":[
		{
			"buffer":0,
			"byteLength":13776,
			"byteOffset":0,
			"target":34962
		},
		{
			"buffer":0,
			"byteLength":9184,
			"byteOffset":13776,
			"target":34962
		},
		{
			"buffer":0,
			"byteLength":13776,
			"byteOffset":22960,
			"target":34962
		},
		{
			"buffer":0,
			"byteLength":4488,
			"byteOffset":36736,
			"target":34963
		}
	],
	"samplers":[
		{
			"magFilter":9729,
			"minFilter":9987
		}
	],
	"buffers":[
		{
			"byteLength":41224,
			"uri":"dddd.bin"
		}
	]
}
