{
	"asset":{
		"generator":"Khronos glTF Blender I/O v3.5.30",
		"version":"2.0"
	},
	"scene":0,
	"scenes":[
		{
			"name":"Scene",
			"nodes":[
				0
			]
		}
	],
	"nodes":[
		{
			"mesh":0,
			"name":"Cube"
		}
	],
	"materials":[
		{
			"doubleSided":true,
			"name":"Material",
			"pbrMetallicRoughness":{
				"baseColorTexture":{
					"index":0
				},
				"metallicFactor":0,
				"roughnessFactor":0.5
			}
		}
	],
	"meshes":[
		{
			"name":"Cube",
			"primitives":[
				{
					"attributes":{
						"POSITION":0,
						"TEXCOORD_0":1,
						"NORMAL":2
					},
					"indices":3,
					"material":0
				}
			]
		}
	],
	"textures":[
		{
			"sampler":0,
			"source":0
		}
	],
	"images":[
		{
			"mimeType":"image/png",
			"name":"mapTexture",
			"uri":"diffuse.png"
		}
	],
	"accessors":[
		{
			"bufferView":0,
			"componentType":5126,
			"count":1002,
			"max":[
				60.702091217041016,
				45.92333221435547,
				60.592140197753906
			],
			"min":[
				-61.14099884033203,
				-6.407072067260742,
				-60.5920524597168
			],
			"type":"VEC3"
		},
		{
			"bufferView":1,
			"componentType":5126,
			"count":1002,
			"type":"VEC2"
		},
		{
			"bufferView":2,
			"componentType":5126,
			"count":1002,
			"type":"VEC3"
		},
		{
			"bufferView":3,
			"componentType":5123,
			"count":2178,
			"type":"SCALAR"
		}
	],
	"bufferViews":[
		{
			"buffer":0,
			"byteLength":12024,
			"byteOffset":0,
			"target":34962
		},
		{
			"buffer":0,
			"byteLength":8016,
			"byteOffset":12024,
			"target":34962
		},
		{
			"buffer":0,
			"byteLength":12024,
			"byteOffset":20040,
			"target":34962
		},
		{
			"buffer":0,
			"byteLength":4356,
			"byteOffset":32064,
			"target":34963
		}
	],
	"samplers":[
		{
			"magFilter":9729,
			"minFilter":9987
		}
	],
	"buffers":[
		{
			"byteLength":36420,
			"uri":"Arena.bin"
		}
	]
}
