{
	"asset":{
		"generator":"Khronos glTF Blender I/O v3.5.30",
		"version":"2.0"
	},
	"scene":0,
	"scenes":[
		{
			"name":"Scene",
			"nodes":[
				0
			]
		}
	],
	"nodes":[
		{
			"mesh":0,
			"name":"Cube"
		}
	],
	"materials":[
		{
			"doubleSided":true,
			"name":"Material",
			"pbrMetallicRoughness":{
				"baseColorTexture":{
					"index":0
				},
				"metallicFactor":0,
				"roughnessFactor":0.5
			}
		}
	],
	"meshes":[
		{
			"name":"Cube",
			"primitives":[
				{
					"attributes":{
						"POSITION":0,
						"TEXCOORD_0":1,
						"NORMAL":2
					},
					"indices":3,
					"material":0
				}
			]
		}
	],
	"textures":[
		{
			"sampler":0,
			"source":0
		}
	],
	"images":[
		{
			"mimeType":"image/png",
			"name":"AmmoBoxText",
			"uri":"diffuse.png"
		}
	],
	"accessors":[
		{
			"bufferView":0,
			"componentType":5126,
			"count":450,
			"max":[
				0.44950294494628906,
				1.1114156246185303,
				1.0270262956619263
			],
			"min":[
				-0.44950294494628906,
				-0.14889681339263916,
				-1.3050415515899658
			],
			"type":"VEC3"
		},
		{
			"bufferView":1,
			"componentType":5126,
			"count":450,
			"type":"VEC2"
		},
		{
			"bufferView":2,
			"componentType":5126,
			"count":450,
			"type":"VEC3"
		},
		{
			"bufferView":3,
			"componentType":5123,
			"count":708,
			"type":"SCALAR"
		}
	],
	"bufferViews":[
		{
			"buffer":0,
			"byteLength":5400,
			"byteOffset":0,
			"target":34962
		},
		{
			"buffer":0,
			"byteLength":3600,
			"byteOffset":5400,
			"target":34962
		},
		{
			"buffer":0,
			"byteLength":5400,
			"byteOffset":9000,
			"target":34962
		},
		{
			"buffer":0,
			"byteLength":1416,
			"byteOffset":14400,
			"target":34963
		}
	],
	"samplers":[
		{
			"magFilter":9729,
			"minFilter":9987
		}
	],
	"buffers":[
		{
			"byteLength":15816,
			"uri":"Ammobox.bin"
		}
	]
}
