{
	"asset":{
		"generator":"Khronos glTF Blender I/O v3.5.30",
		"version":"2.0"
	},
	"scene":0,
	"scenes":[
		{
			"name":"Scene",
			"nodes":[
				0
			]
		}
	],
	"nodes":[
		{
			"mesh":0,
			"name":"Cube"
		}
	],
	"materials":[
		{
			"doubleSided":true,
			"name":"Material",
			"pbrMetallicRoughness":{
				"baseColorTexture":{
					"index":0
				},
				"metallicFactor":0,
				"roughnessFactor":0.5
			}
		}
	],
	"meshes":[
		{
			"name":"Cube",
			"primitives":[
				{
					"attributes":{
						"POSITION":0,
						"TEXCOORD_0":1,
						"NORMAL":2
					},
					"indices":3,
					"material":0
				}
			]
		}
	],
	"textures":[
		{
			"sampler":0,
			"source":0
		}
	],
	"images":[
		{
			"mimeType":"image/png",
			"name":"robotTex",
			"uri":"diffuse.png"
		}
	],
	"accessors":[
		{
			"bufferView":0,
			"componentType":5126,
			"count":854,
			"max":[
				1.3941742181777954,
				3.356276035308838,
				2.926888942718506
			],
			"min":[
				-1.3941739797592163,
				-1.6034519672393799,
				-2.7291154861450195
			],
			"type":"VEC3"
		},
		{
			"bufferView":1,
			"componentType":5126,
			"count":854,
			"type":"VEC2"
		},
		{
			"bufferView":2,
			"componentType":5126,
			"count":854,
			"type":"VEC3"
		},
		{
			"bufferView":3,
			"componentType":5123,
			"count":1812,
			"type":"SCALAR"
		}
	],
	"bufferViews":[
		{
			"buffer":0,
			"byteLength":10248,
			"byteOffset":0,
			"target":34962
		},
		{
			"buffer":0,
			"byteLength":6832,
			"byteOffset":10248,
			"target":34962
		},
		{
			"buffer":0,
			"byteLength":10248,
			"byteOffset":17080,
			"target":34962
		},
		{
			"buffer":0,
			"byteLength":3624,
			"byteOffset":27328,
			"target":34963
		}
	],
	"samplers":[
		{
			"magFilter":9729,
			"minFilter":9987
		}
	],
	"buffers":[
		{
			"byteLength":30952,
			"uri":"Robot.bin"
		}
	]
}
