{
	"asset":{
		"generator":"Khronos glTF Blender I/O v3.5.30",
		"version":"2.0"
	},
	"extensionsUsed":[
		"KHR_materials_specular",
		"KHR_materials_emissive_strength"
	],
	"scene":0,
	"scenes":[
		{
			"name":"Scene",
			"nodes":[
				0
			]
		}
	],
	"nodes":[
		{
			"mesh":0,
			"name":"Slice.042_low_ATTACH_0",
			"rotation":[
				-0.70710688829422,
				0,
				0,
				0.7071066498756409
			]
		}
	],
	"materials":[
		{
			"doubleSided":true,
			"name":"ATTACH.001",
			"normalTexture":{
				"index":0
			},
			"occlusionTexture":{
				"index":1
			},
			"pbrMetallicRoughness":{
				"baseColorTexture":{
					"index":2
				},
				"metallicRoughnessTexture":{
					"index":1
				}
			}
		},
		{
			"doubleSided":true,
			"name":"BODY.001",
			"normalTexture":{
				"index":3
			},
			"occlusionTexture":{
				"index":4
			},
			"pbrMetallicRoughness":{
				"baseColorTexture":{
					"index":5
				},
				"metallicRoughnessTexture":{
					"index":4
				}
			}
		},
		{
			"doubleSided":true,
			"extensions":{
				"KHR_materials_specular":{
					"specularColorTexture":{
						"index":6
					}
				}
			},
			"name":"RAIL.001",
			"normalTexture":{
				"index":7
			},
			"occlusionTexture":{
				"index":8,
				"strength":0.5584132075309753
			},
			"pbrMetallicRoughness":{
				"baseColorTexture":{
					"index":9
				},
				"metallicRoughnessTexture":{
					"index":8
				}
			}
		},
		{
			"doubleSided":true,
			"name":"MAGAZINE.001",
			"normalTexture":{
				"index":10
			},
			"occlusionTexture":{
				"index":11
			},
			"pbrMetallicRoughness":{
				"baseColorTexture":{
					"index":12
				},
				"metallicRoughnessTexture":{
					"index":11
				}
			}
		},
		{
			"doubleSided":true,
			"emissiveFactor":[
				1,
				1,
				1
			],
			"emissiveTexture":{
				"index":13
			},
			"extensions":{
				"KHR_materials_emissive_strength":{
					"emissiveStrength":3.21565842628479
				}
			},
			"name":"SCOPE.001",
			"normalTexture":{
				"index":14
			},
			"occlusionTexture":{
				"index":15
			},
			"pbrMetallicRoughness":{
				"baseColorTexture":{
					"index":16
				},
				"metallicRoughnessTexture":{
					"index":15
				}
			}
		},
		{
			"doubleSided":true,
			"name":"STOCK.001",
			"normalTexture":{
				"index":17
			},
			"occlusionTexture":{
				"index":18
			},
			"pbrMetallicRoughness":{
				"baseColorTexture":{
					"index":19
				},
				"metallicRoughnessTexture":{
					"index":18
				}
			}
		}
	],
	"meshes":[
		{
			"name":"Slice.042_low_ATTACH_0.001",
			"primitives":[
				{
					"attributes":{
						"POSITION":0,
						"TEXCOORD_0":1,
						"NORMAL":2
					},
					"indices":3,
					"material":0
				},
				{
					"attributes":{
						"POSITION":4,
						"TEXCOORD_0":5,
						"NORMAL":6
					},
					"indices":7,
					"material":1
				},
				{
					"attributes":{
						"POSITION":8,
						"TEXCOORD_0":9,
						"NORMAL":10
					},
					"indices":11,
					"material":2
				},
				{
					"attributes":{
						"POSITION":12,
						"TEXCOORD_0":13,
						"NORMAL":14
					},
					"indices":15,
					"material":3
				},
				{
					"attributes":{
						"POSITION":16,
						"TEXCOORD_0":17,
						"NORMAL":18
					},
					"indices":19,
					"material":4
				},
				{
					"attributes":{
						"POSITION":20,
						"TEXCOORD_0":21,
						"NORMAL":22
					},
					"indices":23,
					"material":5
				}
			]
		}
	],
	"textures":[
		{
			"sampler":0,
			"source":0
		},
		{
			"sampler":0,
			"source":1
		},
		{
			"sampler":0,
			"source":2
		},
		{
			"sampler":0,
			"source":3
		},
		{
			"sampler":0,
			"source":4
		},
		{
			"sampler":0,
			"source":5
		},
		{
			"sampler":0,
			"source":6
		},
		{
			"sampler":0,
			"source":7
		},
		{
			"sampler":0,
			"source":8
		},
		{
			"sampler":0,
			"source":9
		},
		{
			"sampler":0,
			"source":10
		},
		{
			"sampler":0,
			"source":11
		},
		{
			"sampler":0,
			"source":12
		},
		{
			"sampler":0,
			"source":13
		},
		{
			"sampler":0,
			"source":14
		},
		{
			"sampler":0,
			"source":15
		},
		{
			"sampler":0,
			"source":16
		},
		{
			"sampler":0,
			"source":17
		},
		{
			"sampler":0,
			"source":18
		},
		{
			"sampler":0,
			"source":19
		}
	],
	"images":[
		{
			"mimeType":"image/png",
			"name":"ATTACH_normal",
			"uri":"Textures/ATTACH_normal.png"
		},
		{
			"mimeType":"image/png",
			"name":"ATTACH_metallicRoughness",
			"uri":"Textures/ATTACH_metallicRoughness.png"
		},
		{
			"mimeType":"image/png",
			"name":"ATTACH_baseColor",
			"uri":"Textures/ATTACH_baseColor.png"
		},
		{
			"mimeType":"image/png",
			"name":"BODY_normal",
			"uri":"Textures/BODY_normal.png"
		},
		{
			"mimeType":"image/png",
			"name":"BODY_metallicRoughness",
			"uri":"Textures/BODY_metallicRoughness.png"
		},
		{
			"mimeType":"image/png",
			"name":"BODY_baseColor",
			"uri":"Textures/BODY_baseColor.png"
		},
		{
			"mimeType":"image/png",
			"name":"Image",
			"uri":"Textures/Image.png"
		},
		{
			"mimeType":"image/png",
			"name":"RAIL_normal",
			"uri":"Textures/RAIL_normal.png"
		},
		{
			"mimeType":"image/png",
			"name":"RAIL_metallicRoughness",
			"uri":"Textures/RAIL_metallicRoughness.png"
		},
		{
			"mimeType":"image/png",
			"name":"RAIL_baseColor",
			"uri":"Textures/RAIL_baseColor.png"
		},
		{
			"mimeType":"image/png",
			"name":"MAGAZINE_normal",
			"uri":"Textures/MAGAZINE_normal.png"
		},
		{
			"mimeType":"image/png",
			"name":"MAGAZINE_metallicRoughness",
			"uri":"Textures/MAGAZINE_metallicRoughness.png"
		},
		{
			"mimeType":"image/png",
			"name":"MAGAZINE_baseColor",
			"uri":"Textures/MAGAZINE_baseColor.png"
		},
		{
			"mimeType":"image/png",
			"name":"SCOPE_emissive",
			"uri":"Textures/SCOPE_emissive.png"
		},
		{
			"mimeType":"image/png",
			"name":"SCOPE_normal",
			"uri":"Textures/SCOPE_normal.png"
		},
		{
			"mimeType":"image/png",
			"name":"SCOPE_metallicRoughness",
			"uri":"Textures/SCOPE_metallicRoughness.png"
		},
		{
			"mimeType":"image/png",
			"name":"SCOPE_baseColor",
			"uri":"Textures/SCOPE_baseColor.png"
		},
		{
			"mimeType":"image/png",
			"name":"STOCK_normal",
			"uri":"Textures/STOCK_normal.png"
		},
		{
			"mimeType":"image/png",
			"name":"STOCK_metallicRoughness",
			"uri":"Textures/STOCK_metallicRoughness.png"
		},
		{
			"mimeType":"image/png",
			"name":"STOCK_baseColor",
			"uri":"Textures/STOCK_baseColor.png"
		}
	],
	"accessors":[
		{
			"bufferView":0,
			"componentType":5126,
			"count":2317,
			"max":[
				0.547009289264679,
				9.213626861572266,
				1.1624282598495483
			],
			"min":[
				-0.44575265049934387,
				-4.831374645233154,
				-2.7211380004882812
			],
			"type":"VEC3"
		},
		{
			"bufferView":1,
			"componentType":5126,
			"count":2317,
			"type":"VEC2"
		},
		{
			"bufferView":2,
			"componentType":5126,
			"count":2317,
			"type":"VEC3"
		},
		{
			"bufferView":3,
			"componentType":5123,
			"count":6426,
			"type":"SCALAR"
		},
		{
			"bufferView":4,
			"componentType":5126,
			"count":1637,
			"max":[
				0.44575265049934387,
				9.625128746032715,
				1.162428379058838
			],
			"min":[
				-0.44575265049934387,
				-4.831374645233154,
				-2.9139976501464844
			],
			"type":"VEC3"
		},
		{
			"bufferView":5,
			"componentType":5126,
			"count":1637,
			"type":"VEC2"
		},
		{
			"bufferView":6,
			"componentType":5126,
			"count":1637,
			"type":"VEC3"
		},
		{
			"bufferView":7,
			"componentType":5123,
			"count":4248,
			"type":"SCALAR"
		},
		{
			"bufferView":8,
			"componentType":5126,
			"count":3614,
			"max":[
				0.4457526206970215,
				3.38733172416687,
				0.8385618925094604
			],
			"min":[
				-0.4457526206970215,
				-6.956963539123535,
				-1.1902097463607788
			],
			"type":"VEC3"
		},
		{
			"bufferView":9,
			"componentType":5126,
			"count":3614,
			"type":"VEC2"
		},
		{
			"bufferView":10,
			"componentType":5126,
			"count":3614,
			"type":"VEC3"
		},
		{
			"bufferView":11,
			"componentType":5123,
			"count":7632,
			"type":"SCALAR"
		},
		{
			"bufferView":12,
			"componentType":5126,
			"count":716,
			"max":[
				0.2945965528488159,
				3.2711827754974365,
				-0.5222924947738647
			],
			"min":[
				-0.2945965528488159,
				1.638279676437378,
				-2.9894070625305176
			],
			"type":"VEC3"
		},
		{
			"bufferView":13,
			"componentType":5126,
			"count":716,
			"type":"VEC2"
		},
		{
			"bufferView":14,
			"componentType":5126,
			"count":716,
			"type":"VEC3"
		},
		{
			"bufferView":15,
			"componentType":5123,
			"count":1992,
			"type":"SCALAR"
		},
		{
			"bufferView":16,
			"componentType":5126,
			"count":7122,
			"max":[
				0.3953374922275543,
				4.641293525695801,
				2.1575117111206055
			],
			"min":[
				-0.3591047525405884,
				1.1000157594680786,
				1.1131939888000488
			],
			"type":"VEC3"
		},
		{
			"bufferView":17,
			"componentType":5126,
			"count":7122,
			"type":"VEC2"
		},
		{
			"bufferView":18,
			"componentType":5126,
			"count":7122,
			"type":"VEC3"
		},
		{
			"bufferView":19,
			"componentType":5123,
			"count":19794,
			"type":"SCALAR"
		},
		{
			"bufferView":20,
			"componentType":5126,
			"count":1365,
			"max":[
				0.4457525610923767,
				10.021331787109375,
				1.2536890506744385
			],
			"min":[
				-0.4457525610923767,
				-0.2631034851074219,
				-1.7892342805862427
			],
			"type":"VEC3"
		},
		{
			"bufferView":21,
			"componentType":5126,
			"count":1365,
			"type":"VEC2"
		},
		{
			"bufferView":22,
			"componentType":5126,
			"count":1365,
			"type":"VEC3"
		},
		{
			"bufferView":23,
			"componentType":5123,
			"count":3132,
			"type":"SCALAR"
		}
	],
	"bufferViews":[
		{
			"buffer":0,
			"byteLength":27804,
			"byteOffset":0,
			"target":34962
		},
		{
			"buffer":0,
			"byteLength":18536,
			"byteOffset":27804,
			"target":34962
		},
		{
			"buffer":0,
			"byteLength":27804,
			"byteOffset":46340,
			"target":34962
		},
		{
			"buffer":0,
			"byteLength":12852,
			"byteOffset":74144,
			"target":34963
		},
		{
			"buffer":0,
			"byteLength":19644,
			"byteOffset":86996,
			"target":34962
		},
		{
			"buffer":0,
			"byteLength":13096,
			"byteOffset":106640,
			"target":34962
		},
		{
			"buffer":0,
			"byteLength":19644,
			"byteOffset":119736,
			"target":34962
		},
		{
			"buffer":0,
			"byteLength":8496,
			"byteOffset":139380,
			"target":34963
		},
		{
			"buffer":0,
			"byteLength":43368,
			"byteOffset":147876,
			"target":34962
		},
		{
			"buffer":0,
			"byteLength":28912,
			"byteOffset":191244,
			"target":34962
		},
		{
			"buffer":0,
			"byteLength":43368,
			"byteOffset":220156,
			"target":34962
		},
		{
			"buffer":0,
			"byteLength":15264,
			"byteOffset":263524,
			"target":34963
		},
		{
			"buffer":0,
			"byteLength":8592,
			"byteOffset":278788,
			"target":34962
		},
		{
			"buffer":0,
			"byteLength":5728,
			"byteOffset":287380,
			"target":34962
		},
		{
			"buffer":0,
			"byteLength":8592,
			"byteOffset":293108,
			"target":34962
		},
		{
			"buffer":0,
			"byteLength":3984,
			"byteOffset":301700,
			"target":34963
		},
		{
			"buffer":0,
			"byteLength":85464,
			"byteOffset":305684,
			"target":34962
		},
		{
			"buffer":0,
			"byteLength":56976,
			"byteOffset":391148,
			"target":34962
		},
		{
			"buffer":0,
			"byteLength":85464,
			"byteOffset":448124,
			"target":34962
		},
		{
			"buffer":0,
			"byteLength":39588,
			"byteOffset":533588,
			"target":34963
		},
		{
			"buffer":0,
			"byteLength":16380,
			"byteOffset":573176,
			"target":34962
		},
		{
			"buffer":0,
			"byteLength":10920,
			"byteOffset":589556,
			"target":34962
		},
		{
			"buffer":0,
			"byteLength":16380,
			"byteOffset":600476,
			"target":34962
		},
		{
			"buffer":0,
			"byteLength":6264,
			"byteOffset":616856,
			"target":34963
		}
	],
	"samplers":[
		{
			"magFilter":9729,
			"minFilter":9987
		}
	],
	"buffers":[
		{
			"byteLength":623120,
			"uri":"gun.bin"
		}
	]
}
